<svg width="45" height="32" viewBox="0 0 45 32" fill="none" xmlns="http://www.w3.org/2000/svg">
<path d="M2.33967 31.3043H42.6603C43.9565 31.231 45 30.1467 45 28.8342V2.47011C45 1.11685 43.8995 0.00815217 42.5462 0H2.4538C1.10054 0.00815217 0 1.11685 0 2.47011V28.8261C0 30.1467 1.04348 31.231 2.33967 31.3043Z" fill="#FEFEFE"/>
<path d="M19.3533 18.7745V31.3043H25.6141V18.7745H45V12.5136H25.6141V0H19.3533V12.5136H0V18.7745H19.3533Z" fill="#C8102E"/>
<path d="M27.7011 10.1332V0H42.5625C43.5897 0.0163043 44.4701 0.660326 44.8288 1.56522L27.7011 10.1332Z" fill="#012169"/>
<path d="M27.7011 21.1712V31.3044H42.6603C43.6467 31.2473 44.4783 30.6114 44.8288 29.7391L27.7011 21.1712Z" fill="#012169"/>
<path d="M17.2663 21.1712V31.3044H2.33968C1.35327 31.2473 0.513595 30.6114 0.171204 29.7228L17.2663 21.1712Z" fill="#012169"/>
<path d="M17.2663 10.1332V0H2.43751C1.41033 0.0163043 0.521747 0.668478 0.171204 1.58152L17.2663 10.1332Z" fill="#012169"/>
<path d="M0 10.4348H6.23641L0 7.3125V10.4348Z" fill="#012169"/>
<path d="M45 10.4348H38.731L45 7.29619V10.4348Z" fill="#012169"/>
<path d="M45 20.8696H38.731L45 24.0082V20.8696Z" fill="#012169"/>
<path d="M0 20.8696H6.23641L0 23.9919V20.8696Z" fill="#012169"/>
<path d="M45 2.64946L29.4701 10.4348H32.9429L45 4.40218V2.64946Z" fill="#C8102E"/>
<path d="M15.4973 20.8696H12.0245L0 26.8859V28.6386L15.5299 20.8696H15.4973Z" fill="#C8102E"/>
<path d="M8.57609 10.4429H12.0489L0 4.41032V6.15489L8.57609 10.4429Z" fill="#C8102E"/>
<path d="M36.3832 20.8614H32.9103L45 26.9185V25.1739L36.3832 20.8614Z" fill="#C8102E"/>
</svg>
